<mxfile host="Electron" modified="2024-03-24T22:09:41.045Z" agent="Mozilla/5.0 (X11; Linux x86_64) AppleWebKit/537.36 (KHTML, like Gecko) draw.io/24.1.0 Chrome/120.0.6099.109 Electron/28.1.0 Safari/537.36" etag="xRDLFLX-TS7rLU7Pty6P" version="24.1.0" type="device">
  <diagram name="Page-1" id="FSKSJihYUG2i0lJ5dHHi">
    <mxGraphModel dx="1195" dy="703" grid="1" gridSize="10" guides="1" tooltips="1" connect="1" arrows="1" fold="1" page="1" pageScale="1" pageWidth="827" pageHeight="1169" math="0" shadow="0">
      <root>
        <mxCell id="0" />
        <mxCell id="1" parent="0" />
        <mxCell id="7Pzbd20VNCDHtxQhg8ow-1" value="" style="ellipse;whiteSpace=wrap;html=1;aspect=fixed;" vertex="1" parent="1">
          <mxGeometry x="120" y="400" width="40" height="40" as="geometry" />
        </mxCell>
        <mxCell id="7Pzbd20VNCDHtxQhg8ow-2" value="" style="ellipse;whiteSpace=wrap;html=1;aspect=fixed;" vertex="1" parent="1">
          <mxGeometry x="200" y="400" width="40" height="40" as="geometry" />
        </mxCell>
        <mxCell id="7Pzbd20VNCDHtxQhg8ow-3" value="" style="ellipse;whiteSpace=wrap;html=1;aspect=fixed;" vertex="1" parent="1">
          <mxGeometry x="160" y="320" width="40" height="40" as="geometry" />
        </mxCell>
        <mxCell id="7Pzbd20VNCDHtxQhg8ow-4" value="" style="endArrow=classic;html=1;rounded=0;" edge="1" parent="1" source="7Pzbd20VNCDHtxQhg8ow-3" target="7Pzbd20VNCDHtxQhg8ow-1">
          <mxGeometry width="50" height="50" relative="1" as="geometry">
            <mxPoint x="190" y="410" as="sourcePoint" />
            <mxPoint x="240" y="360" as="targetPoint" />
          </mxGeometry>
        </mxCell>
        <mxCell id="7Pzbd20VNCDHtxQhg8ow-5" value="" style="endArrow=classic;html=1;rounded=0;" edge="1" parent="1" source="7Pzbd20VNCDHtxQhg8ow-3" target="7Pzbd20VNCDHtxQhg8ow-2">
          <mxGeometry width="50" height="50" relative="1" as="geometry">
            <mxPoint x="190" y="410" as="sourcePoint" />
            <mxPoint x="240" y="360" as="targetPoint" />
          </mxGeometry>
        </mxCell>
        <mxCell id="7Pzbd20VNCDHtxQhg8ow-6" value="" style="ellipse;whiteSpace=wrap;html=1;aspect=fixed;" vertex="1" parent="1">
          <mxGeometry x="280" y="400" width="40" height="40" as="geometry" />
        </mxCell>
        <mxCell id="7Pzbd20VNCDHtxQhg8ow-7" value="" style="ellipse;whiteSpace=wrap;html=1;aspect=fixed;" vertex="1" parent="1">
          <mxGeometry x="360" y="400" width="40" height="40" as="geometry" />
        </mxCell>
        <mxCell id="7Pzbd20VNCDHtxQhg8ow-8" value="" style="ellipse;whiteSpace=wrap;html=1;aspect=fixed;" vertex="1" parent="1">
          <mxGeometry x="320" y="320" width="40" height="40" as="geometry" />
        </mxCell>
        <mxCell id="7Pzbd20VNCDHtxQhg8ow-9" value="" style="endArrow=classic;html=1;rounded=0;" edge="1" parent="1" source="7Pzbd20VNCDHtxQhg8ow-8" target="7Pzbd20VNCDHtxQhg8ow-6">
          <mxGeometry width="50" height="50" relative="1" as="geometry">
            <mxPoint x="350" y="410" as="sourcePoint" />
            <mxPoint x="400" y="360" as="targetPoint" />
          </mxGeometry>
        </mxCell>
        <mxCell id="7Pzbd20VNCDHtxQhg8ow-10" value="" style="endArrow=classic;html=1;rounded=0;" edge="1" parent="1" source="7Pzbd20VNCDHtxQhg8ow-8" target="7Pzbd20VNCDHtxQhg8ow-7">
          <mxGeometry width="50" height="50" relative="1" as="geometry">
            <mxPoint x="350" y="410" as="sourcePoint" />
            <mxPoint x="400" y="360" as="targetPoint" />
          </mxGeometry>
        </mxCell>
        <mxCell id="7Pzbd20VNCDHtxQhg8ow-12" value="" style="ellipse;whiteSpace=wrap;html=1;aspect=fixed;" vertex="1" parent="1">
          <mxGeometry x="240" y="240" width="40" height="40" as="geometry" />
        </mxCell>
        <mxCell id="7Pzbd20VNCDHtxQhg8ow-13" value="" style="endArrow=classic;html=1;rounded=0;" edge="1" parent="1" source="7Pzbd20VNCDHtxQhg8ow-12" target="7Pzbd20VNCDHtxQhg8ow-8">
          <mxGeometry width="50" height="50" relative="1" as="geometry">
            <mxPoint x="180" y="390" as="sourcePoint" />
            <mxPoint x="230" y="340" as="targetPoint" />
          </mxGeometry>
        </mxCell>
        <mxCell id="7Pzbd20VNCDHtxQhg8ow-14" value="" style="endArrow=classic;html=1;rounded=0;" edge="1" parent="1" source="7Pzbd20VNCDHtxQhg8ow-12" target="7Pzbd20VNCDHtxQhg8ow-3">
          <mxGeometry width="50" height="50" relative="1" as="geometry">
            <mxPoint x="180" y="390" as="sourcePoint" />
            <mxPoint x="230" y="340" as="targetPoint" />
          </mxGeometry>
        </mxCell>
      </root>
    </mxGraphModel>
  </diagram>
</mxfile>
